<svg width="24" height="24" viewBox="0 0 24 24" fill="none" xmlns="http://www.w3.org/2000/svg">
<path d="M3.70255 5.3093H3.70375M3.70375 5.3093H22.4112C22.4874 5.3091 22.5626 5.32591 22.6314 5.35853C22.7003 5.39114 22.7609 5.43872 22.809 5.49779C22.8571 5.55686 22.8914 5.62591 22.9094 5.69993C22.9273 5.77394 22.9285 5.85102 22.9128 5.92556L21.0831 14.6636C21.0598 14.7747 21.0003 14.875 20.9138 14.9485C20.8273 15.022 20.7187 15.0647 20.6053 15.0697H6.18208M3.70375 5.3093L6.14384 15.0697H6.18208M3.70375 5.3093L2.7996 1.69271C2.74965 1.49485 2.63513 1.31932 2.47418 1.19385C2.31324 1.06838 2.11507 1.00017 1.911 1H0M6.18208 15.0697V17.3342C6.18145 17.5144 6.21648 17.6931 6.28516 17.8597C6.35384 18.0264 6.45482 18.1777 6.58227 18.3052C6.70971 18.4326 6.86112 18.5336 7.02776 18.6023C7.1944 18.671 7.37298 18.706 7.55322 18.7053H21.2789" stroke="#1A6FEE" stroke-width="1.911" stroke-miterlimit="10"/>
<path d="M6.98318 23.2481C7.81432 23.2481 8.48809 22.5743 8.48809 21.7432C8.48809 20.9121 7.81432 20.2383 6.98318 20.2383C6.15204 20.2383 5.47827 20.9121 5.47827 21.7432C5.47827 22.5743 6.15204 23.2481 6.98318 23.2481Z" fill="#1A6FEE"/>
<path d="M17.766 23.2481C18.5971 23.2481 19.2709 22.5743 19.2709 21.7432C19.2709 20.9121 18.5971 20.2383 17.766 20.2383C16.9348 20.2383 16.2611 20.9121 16.2611 21.7432C16.2611 22.5743 16.9348 23.2481 17.766 23.2481Z" fill="#1A6FEE"/>
</svg>
