<svg width="32.000000" height="32.000000" viewBox="0 0 32 32" fill="none" xmlns="http://www.w3.org/2000/svg" xmlns:xlink="http://www.w3.org/1999/xlink">
	<desc>
			Created with Pixso.
	</desc>
	<defs/>
	<circle id="Ellipse 55" cx="16.000000" cy="10.000000" r="4.000000" stroke="#898A8D" stroke-opacity="1.000000" stroke-width="2.000000"/>
	<path id="Ellipse 56" d="M16 27C20.97 27 25 25.9 25 24.25C25 19.69 20.97 16 16 16C11.02 16 7 19.69 7 24.25C7 25.9 11.02 27 16 27ZM19.26 24.81Q17.73 25 16 25Q14.26 25 12.73 24.81Q11.27 24.64 10.2 24.32Q9.71 24.18 9.35 24.02Q9.15 23.93 9.01 23.84Q9.03 23.48 9.1 23.13Q9.23 22.49 9.52 21.87Q9.62 21.65 9.74 21.43Q10.22 20.58 10.98 19.89Q11.24 19.65 11.53 19.44Q12.29 18.87 13.21 18.51Q13.62 18.35 14.04 18.24Q14.99 18 16 18Q17 18 17.95 18.24Q18.37 18.35 18.78 18.51Q19.7 18.87 20.46 19.44Q20.75 19.65 21.01 19.89Q21.77 20.58 22.25 21.43Q22.37 21.65 22.47 21.87Q22.76 22.49 22.89 23.13Q22.96 23.48 22.98 23.84Q22.84 23.93 22.64 24.02Q22.28 24.18 21.79 24.32Q20.72 24.64 19.26 24.81Z" fill="#898A8D" fill-opacity="1.000000" fill-rule="evenodd"/>
</svg>
